<mxfile host="Electron" modified="2023-12-02T17:37:29.811Z" agent="Mozilla/5.0 (Macintosh; Intel Mac OS X 10_15_7) AppleWebKit/537.36 (KHTML, like Gecko) draw.io/22.1.2 Chrome/114.0.5735.289 Electron/25.9.4 Safari/537.36" etag="RlLGJS1w8rO00WE8G92X" version="22.1.2" type="device">
  <diagram name="Page-1" id="2YBvvXClWsGukQMizWep">
    <mxGraphModel dx="686" dy="792" grid="1" gridSize="10" guides="1" tooltips="1" connect="1" arrows="1" fold="1" page="1" pageScale="1" pageWidth="850" pageHeight="1100" math="0" shadow="0">
      <root>
        <mxCell id="0" />
        <mxCell id="1" parent="0" />
        <mxCell id="Z3PIVlK3QnC4cKYUMyk5-10" style="edgeStyle=orthogonalEdgeStyle;rounded=0;orthogonalLoop=1;jettySize=auto;html=1;fontFamily=Courier New;" edge="1" parent="1" source="Z3PIVlK3QnC4cKYUMyk5-1" target="Z3PIVlK3QnC4cKYUMyk5-4">
          <mxGeometry relative="1" as="geometry" />
        </mxCell>
        <mxCell id="Z3PIVlK3QnC4cKYUMyk5-16" value="created" style="edgeLabel;html=1;align=center;verticalAlign=middle;resizable=0;points=[];fontFamily=Courier New;" vertex="1" connectable="0" parent="Z3PIVlK3QnC4cKYUMyk5-10">
          <mxGeometry x="-0.2" y="-2" relative="1" as="geometry">
            <mxPoint as="offset" />
          </mxGeometry>
        </mxCell>
        <mxCell id="Z3PIVlK3QnC4cKYUMyk5-1" value="" style="ellipse;whiteSpace=wrap;html=1;aspect=fixed;fillColor=#000000;fontFamily=Courier New;" vertex="1" parent="1">
          <mxGeometry x="420" y="140" width="10" height="10" as="geometry" />
        </mxCell>
        <mxCell id="Z3PIVlK3QnC4cKYUMyk5-11" style="edgeStyle=orthogonalEdgeStyle;rounded=0;orthogonalLoop=1;jettySize=auto;html=1;exitX=0.5;exitY=1;exitDx=0;exitDy=0;entryX=0.5;entryY=0;entryDx=0;entryDy=0;fontFamily=Courier New;" edge="1" parent="1" source="Z3PIVlK3QnC4cKYUMyk5-4" target="Z3PIVlK3QnC4cKYUMyk5-5">
          <mxGeometry relative="1" as="geometry" />
        </mxCell>
        <mxCell id="Z3PIVlK3QnC4cKYUMyk5-17" value="submitPayment()" style="edgeLabel;html=1;align=center;verticalAlign=middle;resizable=0;points=[];fontFamily=Courier New;" vertex="1" connectable="0" parent="Z3PIVlK3QnC4cKYUMyk5-11">
          <mxGeometry x="-0.1567" y="1" relative="1" as="geometry">
            <mxPoint as="offset" />
          </mxGeometry>
        </mxCell>
        <mxCell id="Z3PIVlK3QnC4cKYUMyk5-4" value="Initiated" style="rounded=1;whiteSpace=wrap;html=1;fontFamily=Courier New;" vertex="1" parent="1">
          <mxGeometry x="380" y="230" width="90" height="40" as="geometry" />
        </mxCell>
        <mxCell id="Z3PIVlK3QnC4cKYUMyk5-12" style="edgeStyle=orthogonalEdgeStyle;rounded=0;orthogonalLoop=1;jettySize=auto;html=1;entryX=0.5;entryY=0;entryDx=0;entryDy=0;fontFamily=Courier New;" edge="1" parent="1" source="Z3PIVlK3QnC4cKYUMyk5-5" target="Z3PIVlK3QnC4cKYUMyk5-6">
          <mxGeometry relative="1" as="geometry" />
        </mxCell>
        <mxCell id="Z3PIVlK3QnC4cKYUMyk5-18" value="successfulPayment()" style="edgeLabel;html=1;align=center;verticalAlign=middle;resizable=0;points=[];fontFamily=Courier New;" vertex="1" connectable="0" parent="Z3PIVlK3QnC4cKYUMyk5-12">
          <mxGeometry x="-0.2" y="-2" relative="1" as="geometry">
            <mxPoint as="offset" />
          </mxGeometry>
        </mxCell>
        <mxCell id="Z3PIVlK3QnC4cKYUMyk5-13" style="edgeStyle=orthogonalEdgeStyle;rounded=0;orthogonalLoop=1;jettySize=auto;html=1;entryX=0;entryY=0.5;entryDx=0;entryDy=0;fontFamily=Courier New;" edge="1" parent="1" source="Z3PIVlK3QnC4cKYUMyk5-5" target="Z3PIVlK3QnC4cKYUMyk5-7">
          <mxGeometry relative="1" as="geometry" />
        </mxCell>
        <mxCell id="Z3PIVlK3QnC4cKYUMyk5-19" value="paymentFailed()" style="edgeLabel;html=1;align=center;verticalAlign=middle;resizable=0;points=[];fontFamily=Courier New;" vertex="1" connectable="0" parent="Z3PIVlK3QnC4cKYUMyk5-13">
          <mxGeometry x="-0.04" y="-3" relative="1" as="geometry">
            <mxPoint as="offset" />
          </mxGeometry>
        </mxCell>
        <mxCell id="Z3PIVlK3QnC4cKYUMyk5-5" value="Processing" style="rounded=1;whiteSpace=wrap;html=1;fontFamily=Courier New;" vertex="1" parent="1">
          <mxGeometry x="380" y="380" width="90" height="40" as="geometry" />
        </mxCell>
        <mxCell id="Z3PIVlK3QnC4cKYUMyk5-15" style="edgeStyle=orthogonalEdgeStyle;rounded=0;orthogonalLoop=1;jettySize=auto;html=1;entryX=0.5;entryY=0;entryDx=0;entryDy=0;fontFamily=Courier New;" edge="1" parent="1" source="Z3PIVlK3QnC4cKYUMyk5-6" target="Z3PIVlK3QnC4cKYUMyk5-3">
          <mxGeometry relative="1" as="geometry" />
        </mxCell>
        <mxCell id="Z3PIVlK3QnC4cKYUMyk5-20" value="displaySuccessPage()" style="edgeLabel;html=1;align=center;verticalAlign=middle;resizable=0;points=[];fontFamily=Courier New;" vertex="1" connectable="0" parent="Z3PIVlK3QnC4cKYUMyk5-15">
          <mxGeometry x="-0.0667" y="-1" relative="1" as="geometry">
            <mxPoint as="offset" />
          </mxGeometry>
        </mxCell>
        <mxCell id="Z3PIVlK3QnC4cKYUMyk5-6" value="Successful" style="rounded=1;whiteSpace=wrap;html=1;fontFamily=Courier New;" vertex="1" parent="1">
          <mxGeometry x="380" y="490" width="90" height="40" as="geometry" />
        </mxCell>
        <mxCell id="Z3PIVlK3QnC4cKYUMyk5-14" style="edgeStyle=orthogonalEdgeStyle;rounded=0;orthogonalLoop=1;jettySize=auto;html=1;exitX=0.5;exitY=0;exitDx=0;exitDy=0;entryX=0.75;entryY=0;entryDx=0;entryDy=0;fontFamily=Courier New;" edge="1" parent="1" source="Z3PIVlK3QnC4cKYUMyk5-7" target="Z3PIVlK3QnC4cKYUMyk5-5">
          <mxGeometry relative="1" as="geometry">
            <Array as="points">
              <mxPoint x="685" y="350" />
              <mxPoint x="448" y="350" />
            </Array>
          </mxGeometry>
        </mxCell>
        <mxCell id="Z3PIVlK3QnC4cKYUMyk5-21" value="reattemptPayment()" style="edgeLabel;html=1;align=center;verticalAlign=middle;resizable=0;points=[];fontFamily=Courier New;" vertex="1" connectable="0" parent="Z3PIVlK3QnC4cKYUMyk5-14">
          <mxGeometry x="0.0555" y="-2" relative="1" as="geometry">
            <mxPoint as="offset" />
          </mxGeometry>
        </mxCell>
        <mxCell id="Z3PIVlK3QnC4cKYUMyk5-7" value="Failed" style="rounded=1;whiteSpace=wrap;html=1;fontFamily=Courier New;" vertex="1" parent="1">
          <mxGeometry x="640" y="380" width="90" height="40" as="geometry" />
        </mxCell>
        <mxCell id="Z3PIVlK3QnC4cKYUMyk5-9" value="" style="group;fontFamily=Courier New;" vertex="1" connectable="0" parent="1">
          <mxGeometry x="415" y="590" width="20" height="20" as="geometry" />
        </mxCell>
        <mxCell id="Z3PIVlK3QnC4cKYUMyk5-2" value="" style="ellipse;whiteSpace=wrap;html=1;aspect=fixed;fillColor=#000000;fontFamily=Courier New;" vertex="1" parent="Z3PIVlK3QnC4cKYUMyk5-9">
          <mxGeometry x="5" y="5" width="10" height="10" as="geometry" />
        </mxCell>
        <mxCell id="Z3PIVlK3QnC4cKYUMyk5-3" value="" style="ellipse;whiteSpace=wrap;html=1;aspect=fixed;fillColor=none;fontFamily=Courier New;" vertex="1" parent="Z3PIVlK3QnC4cKYUMyk5-9">
          <mxGeometry width="20" height="20" as="geometry" />
        </mxCell>
        <mxCell id="Z3PIVlK3QnC4cKYUMyk5-22" value="&lt;font style=&quot;font-size: 14px;&quot;&gt;&lt;b&gt;ENSF 614 FINAL PROJECT&lt;/b&gt;&lt;br&gt;State Transition Diagram - Payment&lt;br&gt;By: Yajur Vashisht&lt;/font&gt;" style="text;html=1;align=left;verticalAlign=middle;resizable=0;points=[];autosize=1;strokeColor=none;fillColor=none;fontFamily=Courier New;" vertex="1" parent="1">
          <mxGeometry width="310" height="60" as="geometry" />
        </mxCell>
      </root>
    </mxGraphModel>
  </diagram>
</mxfile>
